<?xml version="1.0" encoding="UTF-8" standalone="no"?>
<!DOCTYPE svg PUBLIC "-//W3C//DTD SVG 1.1//EN" "http://www.w3.org/Graphics/SVG/1.1/DTD/svg11.dtd">
<svg version="1.1" xmlns="http://www.w3.org/2000/svg" xmlns:xlink="http://www.w3.org/1999/xlink" preserveAspectRatio="xMidYMid meet" viewBox="0 0 640 640" width="640" height="640"><defs><path d="M143.32 29.08L144.51 29.19L145.7 29.35L146.88 29.58L148.05 29.86L149.22 30.19L150.37 30.58L151.52 31.03L152.66 31.54L153.79 32.11L154.9 32.73L156 33.41L157.08 34.15L158.14 34.94L159.19 35.8L159.52 36.11L159.88 36.45L160.26 36.82L160.68 37.23L161.12 37.69L161.6 38.19L162.12 38.76L162.67 39.38L163.26 40.06L163.89 40.82L164.56 41.65L165.28 42.56L166.05 43.56L166.86 44.65L167.73 45.83L168.64 47.11L169.62 48.5L170.64 49.99L171.73 51.61L172.87 53.34L174.08 55.2L175.35 57.19L176.69 59.31L178.09 61.58L179.56 63.99L181.11 66.55L182.72 69.27L184.42 72.14L186.18 75.19L188.03 78.4L189.96 81.79L191.97 85.36L194.07 89.12L196.25 93.07L198.52 97.21L200.88 101.56L203.33 106.11L205.88 110.87L208.52 115.85L211.26 121.05L212.23 122.8L213.24 124.53L214.27 126.22L215.34 127.89L216.43 129.52L217.55 131.13L218.7 132.7L219.87 134.24L221.08 135.75L222.3 137.23L223.56 138.68L224.83 140.1L226.13 141.48L227.46 142.83L228.8 144.14L230.17 145.43L231.56 146.68L232.96 147.89L234.39 149.08L235.84 150.23L237.3 151.34L238.78 152.42L240.28 153.46L241.79 154.47L243.32 155.45L244.86 156.38L246.42 157.29L247.99 158.15L249.57 158.98L251.16 159.77L252.77 160.53L254.38 161.25L256.01 161.93L257.64 162.58L259.28 163.18L260.93 163.75L262.58 164.28L264.25 164.77L265.91 165.22L267.58 165.64L267.98 165.75L268.37 165.88L268.76 166.04L269.14 166.22L269.52 166.42L269.89 166.64L270.25 166.88L270.61 167.15L270.96 167.43L271.3 167.73L271.64 168.04L271.97 168.37L272.28 168.72L272.59 169.08L272.89 169.46L273.18 169.85L273.46 170.26L273.72 170.67L273.98 171.1L274.23 171.54L274.46 171.98L274.68 172.44L274.89 172.91L275.08 173.38L275.26 173.86L275.43 174.34L275.58 174.83L275.72 175.33L275.85 175.83L275.95 176.33L276.05 176.84L276.12 177.34L276.18 177.85L276.22 178.36L276.24 178.87L276.25 179.37L276.24 179.88L276.21 180.38L276.16 180.88L276.09 181.37L276 181.86L275.89 182.35L275.76 182.82L275.61 183.3L275.45 183.76L275.27 184.22L275.07 184.67L274.86 185.11L274.63 185.54L274.39 185.96L274.14 186.38L273.87 186.78L273.59 187.17L273.29 187.55L272.99 187.92L272.67 188.28L272.34 188.62L272 188.95L271.66 189.27L271.3 189.57L270.94 189.86L270.57 190.13L270.2 190.39L269.81 190.63L269.42 190.85L269.03 191.06L268.63 191.25L268.23 191.42L267.83 191.57L267.42 191.7L267.01 191.81L266.6 191.91L266.19 191.98L265.78 192.03L265.36 192.06L264.95 192.07L264.54 192.05L264.14 192.01L263.73 191.95L263.33 191.86L261.19 191.44L259.05 190.96L256.93 190.42L254.83 189.83L252.74 189.18L250.66 188.47L248.6 187.71L246.55 186.89L244.52 186.02L242.51 185.1L240.52 184.13L238.54 183.11L236.59 182.03L234.65 180.91L232.74 179.74L230.84 178.52L228.97 177.25L227.12 175.94L225.29 174.58L223.48 173.18L221.7 171.73L219.95 170.24L218.21 168.7L216.51 167.13L214.83 165.51L213.18 163.85L211.55 162.15L209.95 160.41L208.38 158.64L206.85 156.82L205.34 154.97L203.86 153.09L202.41 151.17L200.99 149.21L199.61 147.22L198.26 145.19L196.94 143.14L195.66 141.05L194.41 138.93L193.2 136.78L190.92 132.25L188.71 127.9L186.56 123.72L184.48 119.71L182.47 115.87L180.52 112.19L178.63 108.67L176.81 105.31L175.04 102.1L173.34 99.04L171.69 96.12L170.11 93.35L168.58 90.71L167.11 88.21L165.7 85.84L164.34 83.59L163.04 81.47L161.79 79.46L160.6 77.58L159.46 75.8L158.37 74.13L157.33 72.57L156.34 71.11L155.4 69.74L154.51 68.47L153.67 67.29L152.87 66.19L152.12 65.18L151.42 64.24L150.76 63.38L150.14 62.59L149.57 61.87L149.04 61.21L148.55 60.62L148.1 60.08L147.69 59.59L147.32 59.15L146.99 58.76L146.7 58.41L146.44 58.09L146.12 57.81L145.79 57.54L145.45 57.3L145.1 57.07L144.76 56.86L144.4 56.67L144.04 56.5L143.68 56.35L143.31 56.22L142.94 56.11L142.56 56.01L142.18 55.93L141.8 55.88L141.42 55.83L141.04 55.81L140.66 55.81L140.28 55.82L139.89 55.85L139.51 55.9L139.13 55.96L138.76 56.05L138.38 56.14L138.01 56.26L137.64 56.39L137.28 56.54L136.91 56.71L136.56 56.89L136.21 57.09L135.87 57.31L135.53 57.54L135.2 57.79L134.88 58.05L134.56 58.33L134.26 58.63L133.96 58.94L133.67 59.26L133.39 59.6L133.13 59.96L132.87 60.33L132.62 60.72L119.87 85.64L129.44 195.8L129.43 196.68L129.42 197.57L129.4 198.45L129.37 199.34L129.33 200.22L129.29 201.1L129.23 201.98L129.17 202.86L129.1 203.74L129.02 204.61L128.93 205.48L128.83 206.35L128.73 207.22L128.61 208.08L128.48 208.94L128.35 209.8L128.2 210.65L128.05 211.49L127.88 212.34L127.71 213.18L127.52 214.01L127.33 214.84L127.13 215.66L126.91 216.48L126.69 217.29L126.45 218.1L126.2 218.89L125.95 219.69L125.68 220.47L125.4 221.25L125.11 222.02L124.81 222.78L124.5 223.54L124.18 224.29L123.84 225.03L123.5 225.76L123.14 226.48L122.77 227.19L122.39 227.89L122 228.59L121.6 229.26L121.21 229.91L120.82 230.54L120.44 231.15L120.06 231.73L119.69 232.29L119.32 232.82L118.96 233.34L118.61 233.83L118.26 234.3L117.92 234.75L117.59 235.18L117.26 235.59L116.94 235.98L116.64 236.36L116.33 236.71L116.04 237.04L115.76 237.35L115.49 237.65L115.22 237.93L114.97 238.19L114.72 238.44L114.49 238.67L114.27 238.88L114.06 239.08L113.86 239.26L113.67 239.42L113.49 239.58L113.33 239.71L113.18 239.84L113.04 239.95L112.92 240.04L112.81 240.13L112.71 240.2L112.63 240.26L112.56 240.31L112.5 240.34L112.46 240.37L112.44 240.38L112.43 240.39L408.92 511.87L409.56 512.45L410.21 513.02L410.87 513.57L411.53 514.11L412.21 514.63L412.88 515.14L413.57 515.64L414.26 516.11L414.96 516.58L415.66 517.03L416.37 517.46L417.09 517.89L417.81 518.29L418.54 518.68L419.27 519.06L420.01 519.42L420.75 519.77L421.5 520.1L422.25 520.42L423 520.72L423.76 521.01L424.52 521.28L425.29 521.54L426.06 521.78L426.83 522.01L427.61 522.22L428.39 522.42L429.17 522.61L429.95 522.78L430.74 522.93L431.53 523.07L432.32 523.2L433.11 523.31L433.9 523.4L434.7 523.48L435.49 523.55L436.29 523.6L437.08 523.64L437.88 523.66L438.68 523.67L611.89 523.67L612.28 522.88L612.65 522.09L613 521.31L613.33 520.52L613.64 519.73L613.93 518.95L614.2 518.16L614.45 517.37L614.69 516.59L614.9 515.8L615.1 515.01L615.27 514.23L615.43 513.44L615.57 512.65L615.69 511.87L615.79 511.08L615.87 510.29L615.94 509.5L615.98 508.72L616.01 507.93L616.02 507.14L616.02 506.36L615.99 505.57L615.95 504.78L615.89 504L615.81 503.21L615.72 502.42L615.61 501.64L615.48 500.85L615.33 500.06L615.17 499.28L614.99 498.49L614.79 497.7L614.58 496.91L614.35 496.13L614.1 495.34L613.84 494.55L613.56 493.77L613.27 492.98L612.96 492.19L612.88 491.9L612.79 491.62L612.7 491.35L612.61 491.09L612.51 490.84L612.41 490.59L612.31 490.35L612.2 490.13L612.09 489.91L611.98 489.69L611.86 489.49L611.74 489.29L611.62 489.1L611.5 488.91L611.37 488.74L611.24 488.56L611.11 488.4L610.97 488.24L610.84 488.08L610.7 487.93L610.56 487.79L610.42 487.65L610.27 487.51L610.13 487.38L609.98 487.25L609.83 487.13L609.68 487L609.53 486.89L609.38 486.77L609.22 486.66L609.07 486.55L608.91 486.44L608.75 486.34L608.6 486.23L608.44 486.13L608.28 486.03L608.12 485.93L607.96 485.83L607.8 485.73L607.64 485.64L527.94 447.6L496.06 433.18L495 433.18L386.61 382.03L386.45 382.02L386.29 382.01L386.13 381.99L385.97 381.95L385.81 381.91L385.65 381.86L385.5 381.8L385.34 381.74L385.18 381.66L385.03 381.58L384.87 381.49L384.72 381.39L384.57 381.29L384.42 381.18L384.27 381.06L384.12 380.94L383.98 380.81L383.83 380.67L383.69 380.53L383.55 380.39L383.41 380.24L383.28 380.09L383.14 379.93L383.01 379.76L382.88 379.6L382.75 379.42L382.63 379.25L382.51 379.07L382.39 378.89L382.27 378.71L382.16 378.52L382.05 378.34L381.94 378.15L381.84 377.95L381.74 377.76L381.64 377.57L381.55 377.37L381.46 377.18L381.37 376.98L381.29 376.78L293.09 190.55L292.93 190.26L292.79 189.96L292.65 189.67L292.51 189.37L292.39 189.08L292.27 188.78L292.16 188.49L292.06 188.19L291.97 187.9L291.88 187.6L291.8 187.31L291.72 187.01L291.65 186.72L291.59 186.42L291.54 186.13L291.49 185.83L291.45 185.54L291.41 185.24L291.39 184.95L291.36 184.65L291.35 184.36L291.33 184.06L291.33 183.77L291.33 183.47L291.34 183.18L291.35 182.88L291.36 182.59L291.39 182.29L291.41 182L291.45 181.7L291.48 181.41L291.52 181.11L291.57 180.82L291.62 180.52L291.68 180.23L291.74 179.93L291.81 179.64L291.88 179.34L291.95 179.05L292.03 178.75L292.44 177.67L292.88 176.61L293.35 175.55L293.84 174.51L294.36 173.48L294.91 172.46L295.48 171.45L296.07 170.46L296.69 169.49L297.34 168.52L298.01 167.58L298.7 166.65L299.42 165.74L300.16 164.85L300.92 163.97L301.7 163.12L302.51 162.28L303.33 161.47L304.18 160.67L305.04 159.9L305.93 159.15L306.84 158.42L307.76 157.71L308.71 157.03L309.67 156.38L310.65 155.74L311.65 155.14L312.66 154.56L313.69 154.01L314.74 153.48L315.81 152.99L316.88 152.52L317.98 152.08L319.09 151.68L320.21 151.3L321.35 150.95L322.5 150.64L323.67 150.36L324.84 150.11L326.03 149.9L327.39 149.72L328.73 149.59L330.08 149.51L331.42 149.46L332.75 149.46L334.08 149.51L335.4 149.59L336.72 149.72L338.03 149.89L339.33 150.1L340.63 150.36L341.92 150.65L343.2 150.99L344.47 151.37L345.74 151.79L347 152.25L348.25 152.75L349.49 153.29L350.72 153.87L351.94 154.49L353.15 155.15L354.35 155.84L355.54 156.58L356.71 157.36L357.88 158.17L359.04 159.02L360.18 159.91L361.31 160.84L362.43 161.81L363.54 162.81L364.64 163.85L365.72 164.92L366.78 166.03L367.84 167.18L368.88 168.37L369.9 169.59L370.91 170.84L371.91 172.13L372.89 173.46L373.85 174.82L373.93 174.82L374 174.83L374.07 174.84L374.14 174.85L374.2 174.87L374.26 174.9L374.32 174.92L374.37 174.95L374.42 174.99L374.47 175.02L374.51 175.06L374.55 175.1L374.59 175.14L374.62 175.19L374.66 175.23L374.69 175.28L374.71 175.33L374.74 175.37L374.76 175.42L374.78 175.47L374.8 175.52L374.82 175.57L374.83 175.62L374.85 175.67L374.86 175.71L374.87 175.76L374.88 175.8L374.89 175.84L374.89 175.88L374.9 175.92L374.9 175.96L374.91 175.99L374.91 176.02L374.91 176.05L374.91 176.07L374.91 176.09L374.92 176.11L374.92 176.12L374.92 176.13L388.73 203.67L398.3 203.67L398.77 203.68L399.24 203.71L399.69 203.76L400.14 203.82L400.58 203.91L401.01 204.01L401.44 204.14L401.85 204.28L402.25 204.44L402.65 204.61L403.03 204.8L403.4 205.01L403.77 205.24L404.12 205.48L404.46 205.74L404.79 206.02L405.11 206.31L405.42 206.62L405.71 206.94L406 207.27L406.27 207.63L406.53 207.99L406.78 208.37L407.02 208.77L407.24 209.18L407.45 209.6L407.65 210.03L407.83 210.48L408 210.94L408.16 211.41L408.3 211.9L408.43 212.4L408.54 212.91L408.64 213.43L408.73 213.96L408.8 214.5L408.85 215.06L408.89 215.62L408.91 216.2L408.92 216.78L408.92 217.18L408.9 217.57L408.87 217.96L408.83 218.35L408.78 218.74L408.71 219.13L408.64 219.52L408.56 219.9L408.46 220.28L408.36 220.66L408.24 221.03L408.12 221.4L407.98 221.76L407.84 222.12L407.69 222.48L407.53 222.83L407.36 223.17L407.18 223.51L406.99 223.84L406.8 224.16L406.59 224.48L406.38 224.78L406.16 225.08L405.94 225.38L405.7 225.66L405.46 225.93L405.22 226.2L404.96 226.45L404.7 226.69L404.44 226.93L404.17 227.15L403.89 227.36L403.61 227.56L403.32 227.74L403.02 227.92L402.72 228.08L402.42 228.23L402.11 228.36L401.8 228.48L401.48 228.59L412.11 249.57L422.74 249.57L423.21 249.58L423.68 249.61L424.13 249.66L424.58 249.72L425.02 249.81L425.46 249.92L425.88 250.04L426.29 250.18L426.69 250.34L427.09 250.51L427.47 250.71L427.84 250.92L428.21 251.14L428.56 251.39L428.9 251.64L429.23 251.92L429.55 252.21L429.86 252.52L430.16 252.84L430.44 253.18L430.71 253.53L430.98 253.89L431.22 254.27L431.46 254.67L431.68 255.08L431.89 255.5L432.09 255.93L432.27 256.38L432.44 256.84L432.6 257.32L432.74 257.8L432.87 258.3L432.98 258.81L433.08 259.33L433.17 259.86L433.24 260.41L433.29 260.96L433.33 261.52L433.36 262.1L433.36 262.68L433.36 263.17L433.34 263.66L433.31 264.14L433.27 264.61L433.22 265.08L433.15 265.54L433.08 265.99L432.99 266.44L432.89 266.88L432.78 267.32L432.66 267.74L432.53 268.16L432.39 268.57L432.24 268.98L432.07 269.37L431.9 269.76L431.72 270.13L431.52 270.5L431.32 270.86L431.11 271.21L430.88 271.55L430.65 271.88L430.4 272.2L430.15 272.51L429.89 272.8L429.61 273.09L429.33 273.36L429.04 273.63L428.74 273.88L428.43 274.12L428.11 274.35L427.79 274.56L427.45 274.76L427.11 274.95L426.75 275.13L426.39 275.29L426.02 275.44L425.64 275.57L425.26 275.69L424.86 275.8L437.61 302.03L448.24 302.03L448.72 302.04L449.18 302.07L449.64 302.12L450.09 302.18L450.53 302.27L450.96 302.37L451.38 302.5L451.79 302.64L452.2 302.8L452.59 302.97L452.98 303.16L453.35 303.37L453.71 303.6L454.06 303.84L454.41 304.1L454.74 304.38L455.06 304.67L455.36 304.98L455.66 305.3L455.95 305.64L456.22 305.99L456.48 306.35L456.73 306.73L456.96 307.13L457.19 307.54L457.4 307.96L457.59 308.39L457.78 308.84L457.95 309.3L458.1 309.77L458.25 310.26L458.38 310.76L458.49 311.27L458.59 311.79L458.67 312.32L458.74 312.86L458.8 313.42L458.84 313.98L458.86 314.56L458.87 315.14L458.86 315.63L458.84 316.12L458.81 316.6L458.77 317.07L458.72 317.54L458.66 318L458.58 318.45L458.49 318.9L458.4 319.34L458.29 319.77L458.17 320.2L458.04 320.62L457.89 321.03L457.74 321.43L457.58 321.83L457.41 322.22L457.22 322.59L457.03 322.96L456.82 323.32L456.61 323.67L456.39 324.01L456.15 324.34L455.91 324.66L455.65 324.96L455.39 325.26L455.12 325.55L454.84 325.82L454.55 326.09L454.25 326.34L453.94 326.58L453.62 326.81L453.29 327.02L452.96 327.22L452.61 327.41L452.26 327.59L451.9 327.75L451.53 327.9L451.15 328.03L450.76 328.15L450.37 328.26L478 384.65L478.4 385.43L478.82 386.21L479.24 386.97L479.68 387.72L480.13 388.46L480.6 389.2L481.07 389.92L481.55 390.63L482.04 391.34L482.55 392.03L483.06 392.71L483.58 393.39L484.11 394.05L484.66 394.7L485.21 395.35L485.77 395.98L486.34 396.61L486.91 397.22L487.5 397.83L488.09 398.42L488.69 399.01L489.3 399.58L489.92 400.15L490.54 400.7L491.18 401.25L491.81 401.79L492.46 402.31L493.11 402.83L493.77 403.34L494.43 403.83L495.11 404.32L495.78 404.8L496.46 405.26L497.15 405.72L497.84 406.17L498.54 406.61L499.24 407.03L499.95 407.45L500.66 407.86L501.38 408.26L534.32 422.68L615.08 460.72L615.56 461.02L616.04 461.33L616.52 461.65L616.99 461.98L617.47 462.31L617.94 462.66L618.41 463.02L618.88 463.38L619.35 463.76L619.82 464.14L620.28 464.53L620.74 464.93L621.19 465.34L621.64 465.76L622.09 466.18L622.53 466.61L622.97 467.05L623.4 467.5L623.83 467.96L624.25 468.42L624.66 468.89L625.07 469.37L625.48 469.86L625.87 470.35L626.26 470.85L626.64 471.35L627.01 471.87L627.38 472.39L627.74 472.91L628.08 473.44L628.42 473.98L628.75 474.52L629.07 475.07L629.38 475.63L629.68 476.19L629.97 476.76L630.25 477.33L630.52 477.91L630.78 478.49L631.02 479.08L631.72 480.65L632.38 482.24L633 483.82L633.57 485.41L634.11 487.01L634.6 488.61L635.06 490.22L635.47 491.83L635.84 493.44L636.17 495.06L636.46 496.69L636.7 498.32L636.91 499.95L637.07 501.59L637.19 503.24L637.26 504.89L637.3 506.54L637.29 508.2L637.23 509.87L637.13 511.54L636.99 513.21L636.81 514.89L636.58 516.58L636.3 518.27L635.98 519.96L635.62 521.66L635.21 523.36L634.76 525.07L634.26 526.79L633.71 528.5L633.12 530.23L632.49 531.96L631.8 533.69L631.07 535.43L630.3 537.17L629.47 538.92L628.6 540.67L627.69 542.43L626.72 544.2L625.71 545.96L624.43 548.03L622.98 550.1L621.36 552.17L619.59 554.24L617.67 556.29L615.6 558.34L613.4 560.38L611.06 562.4L608.6 564.41L606.02 566.39L603.32 568.36L600.52 570.29L597.61 572.2L594.61 574.07L591.53 575.91L588.35 577.71L585.11 579.47L581.79 581.19L578.41 582.86L574.97 584.49L571.47 586.06L567.94 587.58L564.36 589.04L560.75 590.44L557.11 591.78L553.45 593.05L549.78 594.25L546.1 595.38L542.42 596.44L538.74 597.42L535.07 598.32L531.41 599.14L527.78 599.87L524.18 600.51L520.61 601.06L517.08 601.52L513.6 601.88L510.17 602.14L506.8 602.3L503.5 602.36L95.43 602.36L94.96 602.35L94.49 602.32L94.03 602.27L93.58 602.2L93.14 602.12L92.71 602.01L92.29 601.89L91.88 601.75L91.47 601.59L91.08 601.41L90.7 601.22L90.32 601.01L89.96 600.79L89.61 600.54L89.27 600.28L88.93 600.01L88.61 599.72L88.31 599.41L88.01 599.09L87.73 598.75L87.45 598.4L87.19 598.03L86.94 597.65L86.71 597.26L86.48 596.85L86.27 596.43L86.08 595.99L85.89 595.55L85.72 595.08L85.57 594.61L85.42 594.13L85.3 593.63L85.18 593.12L85.08 592.6L85 592.07L84.93 591.52L84.87 590.97L84.83 590.4L84.81 589.83L84.8 589.24L84.81 588.66L84.83 588.08L84.87 587.52L84.93 586.96L85 586.42L85.08 585.89L85.18 585.37L85.3 584.86L85.42 584.36L85.57 583.87L85.72 583.4L85.89 582.94L86.08 582.49L86.27 582.06L86.48 581.63L86.71 581.23L86.94 580.83L87.19 580.45L87.45 580.09L87.73 579.73L88.01 579.4L88.31 579.08L88.61 578.77L88.93 578.48L89.27 578.2L89.61 577.94L89.96 577.7L90.32 577.47L90.7 577.26L91.08 577.07L91.47 576.89L91.88 576.74L92.29 576.6L92.71 576.47L93.14 576.37L93.58 576.28L94.03 576.22L94.49 576.17L94.96 576.14L95.43 576.13L369.6 576.13L364.81 572.32L359.84 568.37L354.7 564.3L349.41 560.1L343.95 555.77L338.35 551.34L332.62 546.79L326.75 542.14L320.75 537.4L314.64 532.56L308.42 527.64L302.1 522.64L295.68 517.56L289.18 512.41L282.59 507.2L275.93 501.93L269.21 496.61L262.43 491.24L255.6 485.83L248.72 480.39L241.81 474.92L234.87 469.42L227.91 463.91L220.94 458.38L213.96 452.84L206.98 447.31L200.01 441.78L193.05 436.26L186.12 430.75L179.22 425.27L172.35 419.81L165.53 414.39L158.77 409L152.06 403.66L145.42 398.37L138.86 393.13L132.38 387.95L125.98 382.84L119.69 377.81L113.5 372.85L113.1 372.55L112.73 372.23L112.37 371.9L112.03 371.56L111.7 371.2L111.39 370.83L111.1 370.45L110.82 370.06L110.55 369.66L110.31 369.24L110.08 368.82L109.86 368.39L109.66 367.95L109.48 367.5L109.31 367.04L109.16 366.57L109.02 366.1L108.9 365.63L108.8 365.14L108.71 364.65L108.64 364.16L108.59 363.66L108.55 363.16L108.52 362.65L108.51 362.14L108.52 361.63L108.55 361.12L108.59 360.6L108.64 360.09L108.71 359.57L108.8 359.05L108.9 358.54L109.02 358.02L109.16 357.51L109.31 357L109.48 356.49L109.66 355.98L109.86 355.48L110.08 354.98L110.31 354.49L110.55 354.01L110.81 353.54L111.08 353.1L111.36 352.68L111.64 352.27L111.94 351.89L112.25 351.53L112.57 351.18L112.9 350.86L113.23 350.55L113.57 350.27L113.92 350L114.28 349.76L114.64 349.53L115.01 349.32L115.39 349.14L115.77 348.97L116.16 348.82L116.55 348.69L116.95 348.59L117.35 348.5L117.75 348.43L118.16 348.38L118.57 348.35L118.98 348.34L119.4 348.35L119.81 348.38L120.23 348.43L120.65 348.5L121.07 348.59L121.49 348.69L121.9 348.82L122.32 348.97L122.74 349.14L123.15 349.32L123.56 349.53L123.97 349.76L124.38 350L124.78 350.27L125.18 350.55L131.54 355.61L138 360.76L144.56 365.97L151.21 371.26L157.95 376.61L164.76 382.02L171.64 387.49L178.58 392.99L185.58 398.54L192.62 404.12L199.69 409.73L206.8 415.35L213.92 421L221.06 426.65L228.21 432.3L235.35 437.95L242.48 443.59L249.59 449.21L256.68 454.82L263.73 460.39L270.74 465.93L277.71 471.43L284.61 476.88L291.45 482.28L298.21 487.62L304.9 492.89L311.49 498.1L317.99 503.22L324.38 508.27L330.67 513.22L336.83 518.07L342.86 522.83L348.75 527.48L354.5 532.01L360.1 536.42L365.54 540.7L370.81 544.86L375.91 548.87L380.82 552.74L385.54 556.46L386.66 557.33L387.8 558.19L388.94 559.02L390.1 559.84L391.27 560.63L392.44 561.41L393.63 562.16L394.83 562.9L396.03 563.61L397.25 564.3L398.47 564.98L399.71 565.63L400.95 566.26L402.2 566.86L403.46 567.45L404.72 568.02L405.99 568.56L407.27 569.08L408.56 569.58L409.85 570.06L411.15 570.52L412.45 570.95L413.76 571.36L415.08 571.75L416.4 572.12L417.72 572.46L419.05 572.78L420.38 573.08L421.71 573.36L423.05 573.61L424.39 573.84L425.74 574.04L427.08 574.22L428.43 574.38L429.78 574.51L431.14 574.62L432.49 574.71L433.84 574.77L435.2 574.8L436.55 574.82L504.56 574.82L506.56 574.79L508.58 574.73L510.61 574.62L512.65 574.47L514.7 574.28L516.76 574.05L518.83 573.79L520.91 573.48L523 573.14L525.09 572.77L527.18 572.36L529.28 571.91L531.38 571.44L533.47 570.93L535.57 570.39L537.67 569.82L539.76 569.23L541.85 568.6L543.93 567.95L546.01 567.28L548.08 566.57L550.14 565.85L552.18 565.1L554.22 564.33L556.25 563.55L558.26 562.74L560.25 561.91L562.23 561.06L564.19 560.2L566.13 559.32L568.06 558.43L569.96 557.53L571.84 556.61L573.69 555.68L575.52 554.73L577.33 553.78L579.11 552.82L580.86 551.85L582.58 550.88L584.27 549.9L437.61 549.9L436.5 549.89L435.38 549.86L434.27 549.81L433.15 549.74L432.04 549.65L430.93 549.54L429.82 549.41L428.7 549.26L427.6 549.09L426.49 548.89L425.38 548.68L424.28 548.45L423.18 548.19L422.08 547.91L420.99 547.62L419.9 547.3L418.81 546.95L417.72 546.59L416.64 546.21L415.56 545.8L414.49 545.37L413.42 544.92L412.35 544.45L411.29 543.95L410.24 543.43L409.19 542.89L408.14 542.32L407.1 541.74L406.07 541.13L405.04 540.49L404.01 539.84L403 539.15L401.99 538.45L400.98 537.72L399.98 536.97L398.99 536.19L398.01 535.39L397.04 534.57L396.07 533.72L395.11 532.85L61.42 225.96L61.1 225.68L60.77 225.41L60.43 225.17L60.09 224.94L59.74 224.73L59.39 224.54L59.03 224.37L58.66 224.22L58.29 224.09L57.92 223.98L57.55 223.88L57.17 223.8L56.79 223.74L56.41 223.7L56.03 223.68L55.64 223.68L55.26 223.69L54.88 223.72L54.5 223.77L54.12 223.83L53.74 223.91L53.37 224.01L52.99 224.13L52.62 224.26L52.26 224.41L51.9 224.58L51.55 224.76L51.2 224.96L50.85 225.18L50.51 225.41L50.18 225.66L49.86 225.92L49.55 226.2L49.24 226.5L48.94 226.81L48.66 227.13L48.38 227.47L48.11 227.83L47.85 228.2L47.61 228.59L31.67 258.75L31.44 259.24L31.22 259.73L31.02 260.22L30.84 260.71L30.67 261.2L30.52 261.69L30.38 262.18L30.26 262.66L30.15 263.15L30.06 263.63L29.98 264.11L29.92 264.58L29.87 265.05L29.84 265.52L29.82 265.99L29.82 266.45L29.83 266.91L29.85 267.36L29.89 267.81L29.94 268.26L30.01 268.7L30.09 269.13L30.18 269.56L30.29 269.99L30.41 270.4L30.55 270.82L30.7 271.22L30.86 271.62L31.03 272.01L31.22 272.4L31.42 272.78L31.63 273.15L31.86 273.51L32.1 273.86L32.35 274.21L32.62 274.54L32.89 274.87L33.18 275.19L33.48 275.5L33.79 275.8L34.53 276.5L35.31 277.23L36.12 277.98L36.98 278.75L37.87 279.55L38.81 280.38L39.78 281.23L40.79 282.11L41.84 283.01L42.93 283.93L44.05 284.89L45.21 285.87L46.41 286.87L47.65 287.9L48.92 288.96L50.24 290.05L51.58 291.16L52.97 292.3L54.39 293.46L55.84 294.65L57.34 295.87L58.87 297.12L60.43 298.39L62.03 299.69L63.66 301.02L65.33 302.37L67.03 303.76L68.77 305.17L70.54 306.61L72.35 308.07L74.19 309.57L76.06 311.09L77.97 312.65L79.91 314.23L81.88 315.84L83.89 317.48L85.93 319.14L88 320.84L90.11 322.57L92.24 324.32L92.63 324.63L93.01 324.94L93.37 325.27L93.71 325.62L94.03 325.97L94.35 326.34L94.64 326.72L94.92 327.11L95.18 327.52L95.43 327.93L95.66 328.35L95.88 328.79L96.08 329.23L96.26 329.68L96.43 330.13L96.58 330.6L96.71 331.07L96.83 331.55L96.94 332.03L97.02 332.52L97.1 333.02L97.15 333.51L97.19 334.02L97.22 334.52L97.22 335.03L97.22 335.54L97.19 336.06L97.15 336.57L97.1 337.09L97.02 337.6L96.94 338.12L96.83 338.63L96.71 339.15L96.58 339.66L96.43 340.17L96.26 340.68L96.08 341.19L95.88 341.69L95.66 342.19L95.43 342.68L95.27 342.98L95.1 343.26L94.93 343.55L94.76 343.82L94.58 344.1L94.41 344.36L94.22 344.62L94.04 344.88L93.85 345.13L93.65 345.37L93.46 345.61L93.26 345.84L93.06 346.06L92.85 346.28L92.65 346.49L92.44 346.69L92.23 346.89L92.01 347.08L91.8 347.26L91.58 347.44L91.36 347.61L91.14 347.77L90.91 347.92L90.69 348.07L90.46 348.2L90.23 348.33L90 348.46L89.77 348.57L89.54 348.67L89.3 348.77L89.07 348.86L88.83 348.94L88.6 349.01L88.36 349.07L88.12 349.12L87.88 349.16L87.65 349.2L87.41 349.22L87.17 349.24L86.93 349.24L86.85 349.24L86.76 349.23L86.67 349.22L86.58 349.2L86.48 349.18L86.38 349.16L86.28 349.13L86.17 349.1L86.06 349.06L85.95 349.02L85.83 348.97L85.71 348.92L85.59 348.87L85.47 348.82L85.34 348.76L85.21 348.7L85.08 348.63L84.94 348.56L84.81 348.5L84.67 348.42L84.53 348.35L84.39 348.27L84.24 348.19L84.1 348.11L83.95 348.03L83.8 347.94L83.65 347.85L83.5 347.76L83.35 347.67L83.19 347.58L83.04 347.49L82.88 347.4L82.72 347.3L82.57 347.2L82.41 347.11L82.25 347.01L82.09 346.91L81.93 346.82L81.77 346.72L81.61 346.62L79.4 344.86L77.22 343.14L75.08 341.44L72.98 339.77L70.91 338.13L68.87 336.52L66.88 334.94L64.92 333.39L62.99 331.86L61.11 330.37L59.26 328.9L57.45 327.46L55.67 326.05L53.93 324.67L52.23 323.31L50.57 321.98L48.94 320.68L47.35 319.41L45.8 318.17L44.29 316.95L42.81 315.76L41.37 314.59L39.98 313.45L38.61 312.34L37.29 311.26L36.01 310.2L34.76 309.17L33.55 308.16L32.38 307.18L31.25 306.23L30.16 305.3L29.11 304.4L28.1 303.52L27.12 302.67L26.19 301.85L25.29 301.05L24.44 300.27L23.62 299.52L22.84 298.8L22.1 298.09L21.09 297.19L20.1 296.24L19.16 295.25L18.25 294.22L17.38 293.15L16.55 292.05L15.75 290.91L15 289.74L14.28 288.54L13.6 287.32L12.97 286.06L12.37 284.78L11.81 283.48L11.3 282.15L10.82 280.8L10.39 279.44L10 278.06L9.65 276.66L9.35 275.25L9.09 273.83L8.87 272.4L8.7 270.96L8.57 269.52L8.49 268.07L8.45 266.61L8.46 265.16L8.51 263.71L8.61 262.25L8.76 260.81L8.95 259.37L9.2 257.93L9.49 256.51L9.83 255.09L10.22 253.69L10.66 252.3L11.14 250.93L11.68 249.57L12.27 248.24L12.91 246.93L13.6 245.64L30.61 212.85L30.85 212.27L31.11 211.7L31.38 211.14L31.65 210.6L31.94 210.08L32.24 209.56L32.56 209.06L32.88 208.58L33.21 208.1L33.54 207.64L33.89 207.19L34.25 206.76L34.62 206.33L34.99 205.92L35.37 205.52L35.76 205.13L36.15 204.75L36.56 204.38L36.97 204.02L37.38 203.67L37.8 203.33L38.23 203L38.66 202.68L39.1 202.37L39.54 202.06L39.99 201.77L40.44 201.49L40.89 201.21L41.35 200.94L41.81 200.68L42.28 200.42L42.75 200.17L43.22 199.93L43.69 199.7L44.16 199.47L44.64 199.25L45.11 199.04L45.59 198.83L46.07 198.62L46.55 198.42L46.47 197.73L46.4 197.05L46.34 196.36L46.29 195.67L46.25 194.98L46.21 194.3L46.19 193.61L46.17 192.92L46.16 192.24L46.16 191.56L46.17 190.88L46.19 190.2L46.22 189.52L46.26 188.84L46.3 188.16L46.36 187.49L46.42 186.82L46.5 186.15L46.58 185.48L46.68 184.82L46.78 184.15L46.9 183.49L47.02 182.84L47.16 182.18L47.3 181.53L47.46 180.88L47.63 180.24L47.8 179.59L47.99 178.95L48.19 178.32L48.4 177.69L48.62 177.06L48.85 176.44L49.1 175.82L49.35 175.2L49.62 174.59L49.89 173.98L50.18 173.38L50.48 172.79L50.8 172.19L115.62 44.98L116.43 43.73L117.28 42.52L118.15 41.37L119.05 40.26L119.98 39.21L120.93 38.2L121.91 37.25L122.91 36.34L123.93 35.49L124.97 34.69L126.03 33.94L127.11 33.25L128.2 32.6L129.31 32.01L130.43 31.47L131.57 30.98L132.72 30.55L133.87 30.17L135.04 29.84L136.21 29.57L137.39 29.35L138.57 29.19L139.76 29.08L140.95 29.02L142.14 29.02L143.32 29.08ZM330.79 177.09L330.22 177.13L329.68 177.19L329.15 177.26L328.65 177.35L328.16 177.44L327.68 177.54L327.21 177.65L326.74 177.78L326.28 177.91L325.82 178.05L325.36 178.2L324.91 178.35L324.47 178.52L324.03 178.69L323.59 178.87L323.16 179.06L322.73 179.26L322.31 179.46L321.9 179.67L321.49 179.88L321.08 180.1L320.69 180.33L320.29 180.56L319.91 180.8L319.52 181.05L319.15 181.29L318.78 181.55L318.42 181.8L318.06 182.07L317.71 182.33L317.36 182.6L317.03 182.87L316.69 183.15L316.37 183.43L316.05 183.71L315.74 183.99L315.44 184.28L315.14 184.57L314.85 184.86L314.57 185.15L314.3 185.44L314.03 185.73L313.77 186.03L313.52 186.32L313.28 186.62L396.17 361.05L454.62 387.28L424.86 329.57L403.61 329.57L403.13 329.56L402.67 329.53L402.21 329.48L401.76 329.42L401.32 329.33L400.89 329.22L400.47 329.1L400.05 328.96L399.65 328.8L399.26 328.63L398.87 328.43L398.5 328.22L398.14 328L397.79 327.75L397.44 327.5L397.11 327.22L396.79 326.93L396.49 326.62L396.19 326.3L395.9 325.96L395.63 325.61L395.37 325.25L395.12 324.87L394.89 324.47L394.66 324.06L394.45 323.64L394.26 323.21L394.07 322.76L393.9 322.3L393.75 321.82L393.6 321.34L393.47 320.84L393.36 320.33L393.26 319.81L393.18 319.28L393.11 318.73L393.05 318.18L393.01 317.62L392.99 317.04L392.98 316.46L392.99 315.87L393.01 315.29L393.05 314.73L393.11 314.18L393.18 313.63L393.26 313.1L393.36 312.58L393.47 312.07L393.6 311.57L393.75 311.09L393.9 310.61L394.07 310.15L394.26 309.7L394.45 309.27L394.66 308.85L394.89 308.44L395.12 308.05L395.37 307.66L395.63 307.3L395.9 306.95L396.19 306.61L396.49 306.29L396.79 305.98L397.11 305.69L397.44 305.42L397.79 305.16L398.14 304.91L398.5 304.69L398.87 304.48L399.26 304.28L399.65 304.11L400.05 303.95L400.47 303.81L400.89 303.69L401.32 303.58L401.76 303.5L402.21 303.43L402.67 303.38L403.13 303.35L403.61 303.34L412.11 303.34L399.36 278.42L378.1 278.42L377.63 278.41L377.16 278.38L376.71 278.34L376.26 278.27L375.82 278.18L375.39 278.08L374.96 277.95L374.55 277.81L374.15 277.66L373.75 277.48L373.37 277.29L373 277.08L372.63 276.85L372.28 276.61L371.94 276.35L371.61 276.07L371.29 275.78L370.98 275.47L370.68 275.15L370.4 274.82L370.13 274.46L369.87 274.1L369.62 273.72L369.38 273.32L369.16 272.92L368.95 272.49L368.75 272.06L368.57 271.61L368.4 271.15L368.24 270.68L368.1 270.19L367.97 269.69L367.86 269.18L367.76 268.66L367.67 268.13L367.6 267.59L367.55 267.03L367.51 266.47L367.49 265.89L367.48 265.31L367.49 264.72L367.51 264.15L367.55 263.58L367.6 263.03L367.67 262.48L367.76 261.95L367.86 261.43L367.97 260.92L368.1 260.42L368.24 259.94L368.4 259.47L368.57 259L368.75 258.56L368.95 258.12L369.16 257.7L369.38 257.29L369.62 256.9L369.87 256.52L370.13 256.15L370.4 255.8L370.68 255.46L370.98 255.14L371.29 254.83L371.61 254.54L371.94 254.27L372.28 254.01L372.63 253.77L373 253.54L373.37 253.33L373.75 253.14L374.15 252.96L374.55 252.8L374.96 252.66L375.39 252.54L375.82 252.43L376.26 252.35L376.71 252.28L377.16 252.23L377.63 252.2L378.1 252.19L386.61 252.19L375.98 231.21L353.66 231.21L353.19 231.2L352.72 231.17L352.26 231.12L351.82 231.05L351.38 230.97L350.94 230.86L350.52 230.74L350.11 230.6L349.71 230.44L349.31 230.27L348.93 230.07L348.56 229.86L348.19 229.64L347.84 229.39L347.5 229.13L347.17 228.86L346.85 228.57L346.54 228.26L346.24 227.94L345.96 227.6L345.68 227.25L345.42 226.88L345.18 226.5L344.94 226.11L344.72 225.7L344.51 225.28L344.31 224.85L344.13 224.4L343.96 223.94L343.8 223.46L343.66 222.98L343.53 222.48L343.41 221.97L343.32 221.45L343.23 220.92L343.16 220.37L343.11 219.82L343.07 219.25L343.04 218.68L343.04 218.09L343.04 217.51L343.07 216.93L343.11 216.37L343.16 215.82L343.23 215.27L343.32 214.74L343.41 214.22L343.53 213.71L343.66 213.21L343.8 212.73L343.96 212.25L344.13 211.79L344.31 211.34L344.51 210.91L344.72 210.49L344.94 210.08L345.18 209.68L345.42 209.3L345.68 208.94L345.96 208.59L346.24 208.25L346.54 207.93L346.85 207.62L347.17 207.33L347.5 207.05L347.84 206.8L348.19 206.55L348.56 206.33L348.93 206.12L349.31 205.92L349.71 205.75L350.11 205.59L350.52 205.45L350.94 205.32L351.38 205.22L351.82 205.13L352.26 205.07L352.72 205.02L353.19 204.99L353.66 204.98L363.23 204.98L356.85 191.86L356.05 190.81L355.25 189.8L354.44 188.84L353.64 187.92L352.83 187.05L352.02 186.22L351.21 185.44L350.4 184.7L349.59 184L348.78 183.34L347.97 182.72L347.17 182.14L346.37 181.59L345.58 181.09L344.78 180.61L344 180.18L343.21 179.77L342.44 179.4L341.67 179.06L340.91 178.75L340.16 178.47L339.41 178.22L338.68 177.99L337.95 177.8L337.24 177.62L336.53 177.48L335.84 177.35L335.16 177.25L334.49 177.17L333.84 177.11L333.2 177.07L332.57 177.05L331.96 177.05L331.36 177.06L330.79 177.09ZM68.71 187.01L68.57 187.42L68.44 187.82L68.32 188.23L68.22 188.65L68.13 189.06L68.05 189.49L67.99 189.91L67.94 190.34L67.9 190.78L67.88 191.22L67.87 191.66L67.87 192.1L67.89 192.55L67.93 193L67.98 193.46L68.04 193.92L68.12 194.38L68.22 194.84L68.33 195.31L68.46 195.78L68.6 196.25L68.76 196.72L68.94 197.19L69.13 197.67L69.34 198.15L69.57 198.63L69.81 199.11L70.08 199.6L70.36 200.08L70.65 200.57L70.97 201.06L71.31 201.54L71.66 202.03L72.03 202.52L72.42 203.01L72.83 203.5L73.26 204L73.71 204.49L74.18 204.98L74.89 205.66L75.58 206.32L76.26 206.96L76.92 207.58L77.56 208.18L78.19 208.76L78.8 209.32L79.4 209.87L79.97 210.39L80.54 210.9L81.08 211.39L81.61 211.86L82.12 212.31L82.61 212.75L83.09 213.16L83.54 213.56L83.99 213.94L84.41 214.31L84.81 214.65L85.2 214.98L85.57 215.29L85.92 215.58L86.26 215.86L86.57 216.12L86.87 216.37L87.15 216.59L87.41 216.8L87.65 217L87.87 217.17L88.07 217.34L88.26 217.48L88.42 217.61L88.57 217.73L88.7 217.82L88.81 217.91L88.9 217.98L88.96 218.03L89.01 218.06L89.04 218.09L89.05 218.09L89.76 218.75L90.45 219.33L91.12 219.84L91.77 220.28L92.4 220.67L93.01 220.99L93.6 221.25L94.18 221.45L94.74 221.6L95.28 221.7L95.8 221.75L96.31 221.75L96.8 221.71L97.28 221.63L97.74 221.51L98.18 221.35L98.61 221.15L99.03 220.93L99.43 220.67L99.81 220.39L100.18 220.08L100.54 219.75L100.89 219.4L101.22 219.04L101.54 218.66L101.84 218.26L102.14 217.86L102.42 217.45L102.69 217.04L102.95 216.62L103.2 216.2L103.44 215.79L103.67 215.38L103.88 214.97L104.09 214.58L104.29 214.2L104.48 213.83L104.66 213.48L104.83 213.16L104.99 212.85L105.15 212.55L105.3 212.25L105.45 211.94L105.6 211.63L105.74 211.31L105.88 210.99L106.01 210.67L106.14 210.34L106.27 210.01L106.39 209.67L106.51 209.33L106.62 208.99L106.73 208.64L106.83 208.29L106.94 207.94L107.03 207.58L107.13 207.22L107.22 206.86L107.3 206.49L107.38 206.13L107.46 205.76L107.54 205.38L107.61 205.01L107.67 204.63L107.73 204.25L107.79 203.87L107.85 203.49L107.9 203.11L107.94 202.72L107.98 202.34L108.02 201.95L108.05 201.56L108.08 201.17L108.11 200.78L108.13 200.39L108.15 199.99L108.16 199.6L108.17 199.21L108.18 198.82L108.18 198.42L101.81 122.36L68.86 186.62L68.71 187.01Z" id="a27DZ9AA86"></path></defs><g><g><g><use xlink:href="#a27DZ9AA86" opacity="1" fill="#fefefe" fill-opacity="1"></use><g><use xlink:href="#a27DZ9AA86" opacity="1" fill-opacity="0" stroke="#000000" stroke-width="1" stroke-opacity="0"></use></g></g></g></g></svg>